<?xml version="1.0" encoding="UTF-8" standalone="no"?>
<!DOCTYPE svg PUBLIC "-//W3C//DTD SVG 20010904//EN"
              "http://www.w3.org/TR/2001/REC-SVG-20010904/DTD/svg10.dtd">

<svg xmlns="http://www.w3.org/2000/svg"
     width="79.3651mm" height="79.3651mm"
     viewBox="0 0 300 300">
  <path id="Selection"
        fill="black" stroke="black" stroke-width="1"
        d="M 33.00,178.00
           C 33.00,178.00 17.81,220.00 17.81,220.00
             13.95,230.01 13.26,237.10 10.72,247.00
             10.72,247.00 4.09,278.00 4.09,278.00
             3.77,280.89 2.78,287.08 6.28,288.34
             8.68,289.21 11.01,287.55 12.53,285.85
             12.53,285.85 21.99,270.00 21.99,270.00
             21.99,270.00 38.23,239.00 38.23,239.00
             38.23,239.00 52.27,201.00 52.27,201.00
             52.27,201.00 58.10,185.01 58.10,185.01
             58.82,183.09 59.62,179.91 61.46,178.85
             63.25,177.83 66.92,178.00 69.00,178.00
             69.00,178.00 86.00,178.00 86.00,178.00
             86.00,182.35 84.58,193.75 90.09,195.04
             97.61,196.79 96.00,182.06 96.00,178.00
             96.00,178.00 122.00,178.00 122.00,178.00
             122.00,178.00 133.58,211.00 133.58,211.00
             133.58,211.00 142.43,236.00 142.43,236.00
             142.43,236.00 157.46,265.00 157.46,265.00
             157.46,265.00 168.67,284.95 168.67,284.95
             170.30,287.47 172.59,290.15 175.86,288.21
             178.47,286.66 178.95,283.78 178.67,281.01
             178.67,281.01 174.61,261.00 174.61,261.00
             174.61,261.00 171.45,248.00 171.45,248.00
             171.45,248.00 167.03,227.00 167.03,227.00
             167.03,227.00 161.53,213.00 161.53,213.00
             161.53,213.00 149.00,178.00 149.00,178.00
             149.00,178.00 156.00,178.00 156.00,178.00
             158.48,178.00 162.60,178.22 164.69,176.83
             167.41,175.01 167.41,170.99 164.69,169.17
             162.18,167.50 155.17,168.05 152.00,168.00
             150.15,167.96 148.01,168.02 146.39,166.98
             144.25,165.60 143.11,162.28 142.20,160.00
             142.20,160.00 135.86,143.00 135.86,143.00
             135.86,143.00 125.50,114.00 125.50,114.00
             124.68,111.66 121.18,103.13 121.36,101.28
             121.36,101.28 129.02,89.00 129.02,89.00
             134.09,78.63 134.88,65.77 130.55,55.00
             126.32,44.51 121.70,39.20 112.00,33.47
             101.13,27.06 96.20,31.82 96.00,21.00
             95.95,17.92 96.49,10.64 94.98,8.26
             93.05,5.19 89.09,5.28 87.17,8.26
             85.64,10.68 86.01,16.10 86.00,19.00
             86.00,21.21 86.21,24.81 84.98,26.69
             83.45,29.02 79.54,29.52 77.00,30.36
             72.74,31.77 68.80,33.62 65.29,36.44
             54.03,45.45 48.84,56.74 49.00,71.00
             49.08,77.63 50.90,85.15 54.04,91.00
             55.61,93.91 59.88,98.89 60.38,101.00
             61.10,104.10 56.09,115.21 54.88,119.00
             54.88,119.00 42.86,152.00 42.86,152.00
             41.59,155.62 39.18,164.06 36.44,166.40
             33.96,168.53 29.15,167.99 26.00,168.00
             23.34,168.00 19.46,167.79 17.15,169.17
             13.77,171.18 13.79,174.98 17.15,176.98
             19.76,178.54 29.53,178.00 33.00,178.00 Z
           M 90.83,37.43
           C 95.32,37.39 99.84,38.40 104.00,40.09
             131.57,51.29 129.83,90.90 102.00,100.82
             97.44,102.45 94.91,103.17 90.00,102.96
             74.71,102.30 59.22,90.05 59.00,74.00
             58.94,69.22 58.71,62.40 60.54,57.99
             64.07,49.50 73.05,41.02 82.00,38.61
             82.00,38.61 90.83,37.43 90.83,37.43 Z
           M 84.00,51.65
           C 59.56,61.38 72.87,96.48 97.00,89.20
             111.45,84.84 115.70,65.59 104.70,55.39
             99.27,50.35 90.86,50.24 84.00,51.65 Z
           M 232.00,113.00
           C 232.00,113.00 192.00,73.00 192.00,73.00
             192.00,73.00 160.00,104.00 160.00,104.00
             160.00,104.00 188.00,133.00 188.00,133.00
             188.00,133.00 241.00,186.00 241.00,186.00
             247.09,181.64 256.31,171.69 262.00,166.00
             264.06,163.94 269.99,158.44 270.83,156.00
             272.27,151.83 265.66,146.66 263.00,144.00
             263.00,144.00 233.00,114.00 233.00,114.00
             233.00,114.00 251.00,109.02 251.00,109.02
             254.14,107.30 260.19,100.81 263.00,98.00
             263.00,98.00 284.00,77.00 284.00,77.00
             289.83,71.17 301.35,61.96 292.47,53.43
             290.53,51.56 288.60,51.16 286.00,51.05
             278.15,50.70 274.14,56.86 269.00,62.00
             269.00,62.00 248.00,83.00 248.00,83.00
             245.18,85.82 238.69,91.94 236.85,95.00
             235.05,98.00 232.73,109.10 232.00,113.00 Z
           M 284.02,54.54
           C 287.34,54.63 290.18,55.45 291.36,59.04
             292.15,61.46 290.98,65.80 287.89,65.80
             285.81,65.80 274.50,58.20 284.02,54.54 Z
           M 88.00,60.60
           C 103.50,57.45 104.52,76.15 94.00,79.82
             86.87,82.30 79.54,75.52 81.32,68.00
             82.23,64.14 84.72,62.34 88.00,60.60 Z
           M 276.00,61.00
           C 276.00,61.00 285.00,70.00 285.00,70.00
             285.00,70.00 252.00,104.00 252.00,104.00
             252.00,104.00 242.00,96.00 242.00,96.00
             244.83,90.02 250.37,85.63 255.00,81.00
             260.69,75.31 269.91,65.36 276.00,61.00 Z
           M 263.00,156.00
           C 256.60,160.58 251.82,166.73 246.00,171.94
             244.11,173.63 240.97,176.45 238.68,173.63
             235.76,170.11 242.73,165.17 238.68,162.91
             236.19,161.49 233.64,164.87 231.00,164.81
             228.07,164.74 224.02,160.01 222.00,158.00
             222.00,158.00 230.09,148.01 230.09,148.01
             231.06,145.55 229.51,143.49 226.98,144.20
             223.85,145.07 220.52,150.80 217.00,150.80
             213.86,150.80 208.49,145.29 209.34,142.02
             209.92,139.75 212.26,138.30 214.00,137.00
             214.00,137.00 210.00,132.00 210.00,132.00
             208.47,133.43 206.07,135.99 204.00,136.51
             200.63,137.36 195.20,132.32 195.20,129.00
             195.20,124.93 202.56,121.29 202.31,117.42
             202.23,116.19 200.68,114.07 200.00,113.00
             200.00,113.00 189.00,124.00 189.00,124.00
             189.00,124.00 179.00,115.00 179.00,115.00
             180.19,113.27 184.40,108.67 182.37,106.63
             179.81,104.04 173.63,111.75 171.17,105.85
             170.06,103.20 172.44,100.79 174.06,99.00
             174.06,99.00 186.00,87.06 186.00,87.06
             187.97,85.27 190.08,83.16 192.96,84.16
             195.01,84.88 207.55,98.10 210.42,100.90
             210.42,100.90 248.12,138.58 248.12,138.58
             252.70,143.19 261.22,150.00 263.00,156.00 Z
           M 240.00,98.00
           C 244.58,100.94 245.83,101.54 247.00,107.00
             247.00,107.00 237.00,109.00 237.00,109.00
             237.00,109.00 240.00,98.00 240.00,98.00 Z
           M 75.00,109.00
           C 75.00,109.00 58.88,155.00 58.88,155.00
             54.56,166.76 55.51,167.74 48.00,168.00
             48.00,168.00 69.00,107.00 69.00,107.00
             69.00,107.00 75.00,109.00 75.00,109.00 Z
           M 113.00,107.00
           C 113.00,107.00 123.19,136.00 123.19,136.00
             123.19,136.00 135.00,168.00 135.00,168.00
             125.96,167.90 127.50,166.42 122.95,154.00
             122.95,154.00 107.00,109.00 107.00,109.00
             107.00,109.00 113.00,107.00 113.00,107.00 Z
           M 98.00,112.00
           C 98.00,112.00 108.58,142.00 108.58,142.00
             108.58,142.00 118.00,168.00 118.00,168.00
             118.00,168.00 96.00,168.00 96.00,168.00
             96.00,163.88 97.38,151.63 91.00,151.63
             84.62,151.63 86.00,163.88 86.00,168.00
             86.00,168.00 64.00,168.00 64.00,168.00
             64.00,168.00 67.77,158.00 67.77,158.00
             67.77,158.00 79.12,127.00 79.12,127.00
             80.24,123.55 82.95,114.06 86.22,112.60
             87.71,111.94 90.36,112.01 92.00,112.00
             92.00,112.00 98.00,112.00 98.00,112.00 Z
           M 50.00,178.00
           C 50.00,178.00 31.08,231.00 31.08,231.00
             29.06,236.51 23.95,248.12 19.00,251.00
             19.00,251.00 24.62,229.00 24.62,229.00
             24.62,229.00 27.91,221.00 27.91,221.00
             27.91,221.00 37.19,195.00 37.19,195.00
             37.19,195.00 44.50,179.02 44.50,179.02
             44.50,179.02 50.00,178.00 50.00,178.00 Z
           M 162.00,252.00
           C 156.02,244.31 151.25,231.12 147.84,222.00
             147.84,222.00 132.00,178.00 132.00,178.00
             140.87,178.10 138.86,179.25 144.68,195.00
             150.54,210.85 161.20,235.65 162.00,252.00 Z
           M 200.00,265.00
           C 200.00,265.00 289.00,265.00 289.00,265.00
             289.00,247.18 291.62,233.28 280.24,218.00
             261.95,193.44 221.37,195.39 205.88,222.00
             197.87,235.75 200.00,249.69 200.00,265.00 Z
           M 243.00,204.00
           C 243.00,204.00 243.00,211.00 243.00,211.00
             243.00,211.00 246.00,211.00 246.00,211.00
             246.00,211.00 246.00,204.00 246.00,204.00
             246.00,204.00 253.00,205.00 253.00,205.00
             253.00,205.00 253.00,210.00 253.00,210.00
             253.00,210.00 257.00,206.00 257.00,206.00
             257.00,206.00 263.00,208.00 263.00,208.00
             263.00,208.00 260.00,215.00 260.00,215.00
             260.00,215.00 264.00,216.00 264.00,216.00
             264.00,216.00 266.00,211.00 266.00,211.00
             271.09,212.80 271.76,213.90 270.00,219.00
             270.00,219.00 271.00,220.00 271.00,220.00
             276.10,218.24 277.20,218.91 279.00,224.00
             279.00,224.00 273.00,227.00 273.00,227.00
             277.04,228.31 277.22,227.78 281.00,226.00
             281.00,226.00 284.00,233.00 284.00,233.00
             284.00,233.00 280.00,237.00 280.00,237.00
             280.00,237.00 285.00,237.00 285.00,237.00
             285.00,237.00 286.00,244.00 286.00,244.00
             286.00,244.00 278.00,244.00 278.00,244.00
             278.00,244.00 278.00,247.00 278.00,247.00
             287.10,247.12 286.00,248.09 286.00,262.00
             286.00,262.00 282.00,262.00 282.00,262.00
             282.00,262.00 282.00,254.00 282.00,254.00
             282.00,254.00 278.00,254.00 278.00,254.00
             278.00,254.00 278.00,262.00 278.00,262.00
             278.00,262.00 276.00,262.00 276.00,262.00
             276.00,262.00 273.00,257.00 273.00,257.00
             273.00,257.00 270.00,262.00 270.00,262.00
             270.00,262.00 270.00,254.00 270.00,254.00
             270.00,254.00 267.00,254.00 267.00,254.00
             266.95,257.95 267.50,259.66 264.00,262.00
             264.00,262.00 264.00,257.00 264.00,257.00
             264.00,257.00 260.00,262.00 260.00,262.00
             260.00,262.00 258.00,262.00 258.00,262.00
             258.00,262.00 258.00,254.00 258.00,254.00
             258.00,254.00 255.00,254.00 255.00,254.00
             255.00,254.00 255.00,262.00 255.00,262.00
             255.00,262.00 252.00,262.00 252.00,262.00
             252.00,262.00 252.00,257.00 252.00,257.00
             252.00,257.00 248.00,262.00 248.00,262.00
             248.00,262.00 246.00,262.00 246.00,262.00
             246.00,262.00 246.00,254.00 246.00,254.00
             246.00,254.00 243.00,254.00 243.00,254.00
             243.00,254.00 243.00,262.00 243.00,262.00
             243.00,262.00 240.00,257.00 240.00,257.00
             240.00,257.00 237.00,257.00 237.00,257.00
             237.00,257.00 237.00,262.00 237.00,262.00
             237.00,262.00 234.00,262.00 234.00,262.00
             234.00,262.00 234.00,254.00 234.00,254.00
             234.00,254.00 231.00,254.00 231.00,254.00
             231.00,254.00 230.00,262.00 230.00,262.00
             230.00,262.00 228.00,257.00 228.00,257.00
             228.00,257.00 225.00,257.00 225.00,257.00
             225.00,257.00 225.00,262.00 225.00,262.00
             221.50,259.66 222.05,257.95 222.00,254.00
             222.00,254.00 219.00,254.00 219.00,254.00
             219.00,254.00 218.00,262.00 218.00,262.00
             218.00,262.00 216.00,257.00 216.00,257.00
             216.00,257.00 213.00,257.00 213.00,257.00
             213.00,257.00 213.00,262.00 213.00,262.00
             213.00,262.00 211.00,262.00 211.00,262.00
             210.84,257.55 211.07,256.29 207.00,254.00
             206.94,258.47 207.58,260.40 203.00,262.00
             203.00,248.09 201.90,247.12 211.00,247.00
             211.00,247.00 211.00,244.00 211.00,244.00
             211.00,244.00 203.00,244.00 203.00,244.00
             203.00,244.00 204.00,236.00 204.00,236.00
             204.00,236.00 209.00,234.00 209.00,234.00
             209.00,234.00 205.00,233.00 205.00,233.00
             206.44,227.65 208.35,225.78 213.00,230.00
             213.00,230.00 216.00,227.00 216.00,227.00
             216.00,227.00 210.00,224.00 210.00,224.00
             211.80,218.91 212.90,218.24 218.00,220.00
             218.00,220.00 219.00,219.00 219.00,219.00
             217.28,213.98 217.83,212.58 223.00,211.00
             223.00,211.00 225.00,216.00 225.00,216.00
             225.00,216.00 229.00,215.00 229.00,215.00
             229.00,215.00 226.00,208.00 226.00,208.00
             226.00,208.00 232.00,206.00 232.00,206.00
             232.00,206.00 236.00,210.00 236.00,210.00
             236.00,210.00 236.00,205.00 236.00,205.00
             236.00,205.00 243.00,204.00 243.00,204.00 Z
           M 215.00,247.00
           C 215.00,247.00 234.00,247.00 234.00,247.00
             236.89,231.85 252.11,231.85 255.00,247.00
             255.00,247.00 274.00,247.00 274.00,247.00
             274.00,237.61 272.98,231.17 265.90,224.10
             252.29,210.54 227.01,213.78 217.98,231.00
             214.74,237.19 215.00,240.33 215.00,247.00 Z
           M 271.00,244.00
           C 268.20,244.00 260.78,244.50 258.68,243.01
             256.69,241.59 253.08,233.31 246.00,232.24
             236.31,230.78 232.28,241.59 230.32,243.01
             228.25,244.49 220.77,244.00 218.00,244.00
             218.39,239.40 219.07,236.04 221.48,232.00
             234.52,210.16 268.70,216.64 271.00,244.00 Z
           M 163.00,252.00
           C 163.00,252.00 163.00,253.00 163.00,253.00
             163.00,253.00 162.00,252.00 162.00,252.00
             162.00,252.00 163.00,252.00 163.00,252.00 Z" />
</svg>
